<?xml version="1.0" encoding="UTF-8" standalone="no"?>
<!-- Created with Inkscape (http://www.inkscape.org/) -->

<svg
   xmlns:dc="http://purl.org/dc/elements/1.1/"
   xmlns:cc="http://creativecommons.org/ns#"
   xmlns:rdf="http://www.w3.org/1999/02/22-rdf-syntax-ns#"
   xmlns:svg="http://www.w3.org/2000/svg"
   xmlns="http://www.w3.org/2000/svg"
   version="1.1"
   width="85mm"
   height="54mm"
   id="svg2985">
  <defs
     id="defs3">
    <linearGradient
       id="linearGradient5461">
      <stop
         id="stop5463"
         style="stop-color:#000000;stop-opacity:1"
         offset="0" />
    </linearGradient>
  </defs>
  <metadata
     id="metadata2989">
    <rdf:RDF>
      <cc:Work
         rdf:about="">
        <dc:format>image/svg+xml</dc:format>
        <dc:type
           rdf:resource="http://purl.org/dc/dcmitype/StillImage" />
        <dc:title></dc:title>
      </cc:Work>
    </rdf:RDF>
  </metadata>
  <g
     id="layer1">
    <rect
       width="28"
       height="190.99663"
       x="0.84129"
       y="0.85042071"
       id="rect5469"
       style="fill:#655df9;fill-opacity:1;stroke:none" />
    <path
       d="m 42.692155,72.912005 c -2.153204,2.837028 -3.615994,7.329689 -4.601032,12.270389 -0.08101,0.906439 -0.227586,1.796532 -0.24302,2.719328 -0.119045,7.116402 3.601716,7.21608 5.890827,7.473762 -0.208817,-0.17717 -0.840783,-0.388777 -0.626453,-0.531505 1.112347,-0.740717 2.297952,-0.807024 3.43529,-1.338912 1.292703,-0.604563 2.577407,-1.295929 3.851021,-2.068655 4.467727,-2.710652 8.770947,-6.416528 13.091428,-10.046247 7.149673,-6.109034 14.260001,-12.441297 21.497741,-18.046867 1.703404,-1.178781 8.468882,-5.404655 8.01456,0.980071 -0.05152,0.724112 -0.227637,1.379347 -0.341454,2.069019 -0.263669,0.831092 -0.493679,1.717741 -0.791004,2.493272 -2.847115,7.426292 -7.433172,13.093526 -11.137998,18.203169 -6.722773,8.733344 -13.692755,16.551111 -20.790855,23.733601 -1.170002,1.13543 -2.77509,2.66231 -3.975995,3.9233 -1.481431,1.55558 -1.466001,2.66566 -3.845776,0.16071 -0.400136,-0.42119 0.863792,-0.45811 1.295688,-0.68716 0,0 3.537182,1.02506 3.537182,1.02506 l 0,0 c -2.380614,1.334 -1.734301,1.27392 -5.496879,0.27001 -0.100867,-0.0268 0.01892,-0.4901 0.0986,-0.62724 1.233971,-2.12374 3.537571,-3.13602 4.812375,-4.9511 7.090508,-7.16359 14.049896,-14.970616 20.778647,-23.635352 4.183962,-5.728506 8.915771,-11.52359 11.956614,-20.201062 0.108819,-0.532291 0.547262,-1.876477 0.279571,-2.685173 -0.100709,-0.304241 -0.620533,-0.497231 -0.450113,-0.553897 0.884658,-0.294155 1.792932,-0.382439 2.683427,-0.188698 1.047237,0.22784 -5.139421,0.995135 -3.067445,1.626946 -7.225209,5.600456 -14.322771,11.927554 -21.459076,18.035837 -5.570728,4.695938 -11.122803,9.432795 -16.972582,12.254955 -1.142134,0.551015 -2.284002,1.182495 -3.449154,1.411718 -2.149759,0.422915 -4.313908,0.359885 -6.470859,0.539823 -0.771942,-0.145987 -1.554992,-0.118823 -2.315806,-0.437968 -2.870439,-1.204072 -4.033071,-5.212191 -3.355546,-11.23235 0.187525,-0.979771 0.337166,-1.998027 0.56256,-2.939309 0.937687,-3.915972 2.408523,-7.388746 4.072477,-9.873458 0,0 3.533037,0.853983 3.533037,0.853983 z"
       id="path3233"
       style="fill:#9f9f9f;fill-opacity:1;stroke:#0906bb;stroke-width:0.65383875;stroke-opacity:0.77578472" />
    <path
       d="m 75.700089,97.016968 c 4.595338,-1.339475 8.979512,-4.886353 13.315677,-8.305282 4.138507,-3.30299 8.23253,-6.862074 12.322244,-10.43849 0,0 3.56857,0.925826 3.56857,0.925826 l 0,0 c -4.08748,3.590945 -8.180395,7.159135 -12.318654,10.46635 -4.35513,3.458243 -8.757976,7.027213 -13.368279,8.476973 0,0 -3.519558,-1.125387 -3.519558,-1.125387 z"
       id="path3235"
       style="fill:#9f9f9f;fill-opacity:1;stroke:#0906bb;stroke-width:0.65383875;stroke-opacity:0.77578472" />
    <path
       d="m 68.524649,100.43021 c 2.511651,-3.279791 5.244311,-5.642341 8.023791,-7.599365 1.745896,-1.017789 6.423638,-3.340397 7.427803,-0.582685 0.108969,0.299247 0.129633,0.709431 0.194447,1.064163 -0.04004,4.584955 -1.602951,8.499957 -2.837705,11.951017 -1.2429,3.82119 -3.098453,7.3252 -3.39557,12.17231 0.05895,0.38799 0.0607,0.84275 0.176871,1.16394 0.287077,0.79383 0.907712,0.93329 1.302238,0.97521 0.360362,0.0383 1.437994,0.0434 1.081736,-0.0805 -2.000563,-0.69573 -3.431851,0.20493 -0.755784,-0.94688 3.177723,-1.90186 6.25205,-4.56299 9.187922,-7.80727 1.466915,-1.29651 2.64959,-3.68724 4.070115,-5.14622 1.698725,-1.5489 3.401715,-3.07292 5.118625,-4.52436 1.251531,-1.11424 2.522442,-2.113105 3.801532,-3.064944 0.50141,-0.373121 0.98544,-0.995541 1.51481,-1.049764 1.2711,-0.130184 2.54491,-0.05286 3.81736,-0.07926 -0.002,0.380354 0.0386,0.773581 -0.007,1.141048 -0.21698,1.764648 -1.71212,3.73462 -2.37996,4.72422 -0.27738,-0.90837 -0.33234,1.1669 -0.52968,0.92523 -0.0653,-0.0799 0.16021,-0.43473 0.0857,-0.45199 -1.05238,-0.24371 -2.11713,-0.0968 -3.17271,-0.2629 -0.16852,-0.0265 0.33718,-0.0733 0.50166,-0.15737 0.22532,-0.11498 0.44301,-0.29182 0.66451,-0.43772 1.75398,-1.13957 3.41828,-2.80012 5.16622,-3.979907 1.50901,-0.905466 6.07601,-3.264373 4.76562,1.804407 -0.0273,0.10118 -0.27725,0.91342 -0.25048,1.16945 0.009,0.088 0.083,-0.008 0.12437,-0.0165 0.11518,-0.0253 0.4607,-0.0764 0.34502,-0.0862 -2.90337,-0.24733 -4.09154,0.16371 -2.37301,-0.3263 1.43324,-0.66923 2.85924,-1.402143 4.27761,-2.207603 0,0 3.53057,1.014981 3.53057,1.014981 l 0,0 c -1.42444,0.813652 -2.85528,1.536062 -4.28652,2.290522 -1.35531,0.48382 -6.14398,2.53321 -4.9147,-2.287491 0.0673,-0.184094 0.13288,-0.371077 0.20178,-0.552281 0.0202,-0.05321 0.0712,-0.08254 0.0654,-0.150348 -0.005,-0.06019 -0.1102,-0.04231 -0.082,-0.04351 6.10299,-0.26877 3.47084,-0.500207 2.12806,0.377957 -1.75931,1.114943 -3.41531,2.804203 -5.16731,3.959513 -0.0584,0.0451 -1.02977,0.83235 -1.18743,0.8344 -0.54417,0.007 -5.615631,1.43001 -3.43268,-2.17342 0.72673,-1.04068 1.46632,-2.13253 2.1126,-3.404756 0.0977,-0.192261 0.15237,-0.478608 0.25676,-0.65339 0.0215,-0.03609 0.0319,0.09562 0.0478,0.143413 1.07288,-0.03478 2.14643,-0.193416 3.21866,-0.104455 0.20381,0.0169 -0.39869,0.19225 -0.59369,0.322328 -1.134,0.756362 -2.26041,1.653629 -3.36804,2.57249 -0.44768,0.3714 -0.89223,0.76041 -1.33836,1.1406 -1.722322,1.4377 -3.430586,2.9493 -5.131142,4.50372 -1.477097,1.12797 -2.567917,3.92243 -4.05225,5.08459 -2.934237,3.33193 -6.021076,5.99111 -9.198533,8.01719 -2.912909,1.36309 -1.403888,0.84942 -6.30271,1.09657 -1.215705,0.0613 -2.382887,-0.38463 -2.597993,-3.36227 0.270068,-5.02877 2.064123,-8.68565 3.392009,-12.59268 1.161483,-3.18654 2.688641,-6.860509 2.849132,-11.079473 -0.657948,-2.101808 -3.479965,-0.922252 2.407563,-0.978353 0.994365,-0.0097 -3.888535,0.48066 -2.938428,1.118582 -2.777259,1.894464 -5.500655,4.224635 -8.0254,7.403994 0,0 -3.539622,-0.78167 -3.539622,-0.78167 z"
       id="path3237"
       style="fill:#9f9f9f;fill-opacity:1;stroke:#0906bb;stroke-width:0.65383875;stroke-opacity:0.77578472" />
    <path
       d="m 107.40088,79.796137 c 1.50415,-3.144975 3.25566,-5.631238 5.08027,-7.794807 0,0 3.54638,0.835339 3.54638,0.835339 l 0,0 c -1.82304,2.083661 -3.56245,4.517983 -5.08084,7.566222 0,0 -3.54581,-0.606754 -3.54581,-0.606754 z"
       id="path3239"
       style="fill:#9f9f9f;fill-opacity:1;stroke:#0906bb;stroke-width:0.65383875;stroke-opacity:0.77578472" />
    <path
       d="m 122.63098,94.133074 c 2.26094,-5.968037 4.93285,-11.126354 7.57684,-16.267772 3.58416,-6.277523 7.3506,-12.608944 11.7404,-15.997597 0.61651,-0.475904 1.2615,-0.755044 1.89225,-1.132566 1.67388,0.01724 3.36239,-0.428597 5.02165,0.0517 0.43156,0.124916 0.79391,0.930546 1.0447,1.704294 1.53554,4.737625 -0.45333,13.165938 -1.3118,17.508996 -3.1632,12.928358 -7.62662,22.638111 -12.84362,31.646971 -1.66863,2.72538 -3.34472,5.4764 -5.19236,7.61557 -0.0923,0.10696 -1.13218,1.32054 -1.48443,1.23754 -1.20813,-0.28461 -2.40134,-0.81473 -3.602,-1.2221 0.0989,-0.64147 0.16499,-1.31144 0.29671,-1.92438 1.35997,-6.32863 4.75965,-13.61176 6.91657,-18.711204 3.33886,-7.655581 6.92688,-14.872852 10.91884,-20.908411 2.63314,-3.981129 3.67535,-5.022616 6.45302,-8.337634 2.97463,-2.736513 6.17441,-7.030687 9.55695,-6.570784 4.87691,0.663082 3.88304,-1.709892 5.21395,3.170654 0.005,0.973207 0.0929,1.961771 0.0136,2.919617 -0.65711,7.933217 -4.51715,16.153699 -6.95554,21.683582 -4.59228,10.17618 -9.60727,19.35701 -14.82448,27.96641 -0.6317,1.02637 -1.26067,2.06077 -1.8951,3.0792 -0.35035,0.56238 -2.63981,4.26375 -2.78926,4.24279 -3.99835,-0.56076 -4.13541,0.46879 -2.70888,-2.49378 4.00398,-7.58069 8.22577,-14.57992 12.52395,-21.34664 5.37781,-8.346028 11.09334,-15.512137 17.11001,-21.421706 2.24293,-1.868277 4.12476,-2.635498 6.6516,-0.835361 0.28599,0.203727 -0.007,1.336584 -0.11461,1.94711 -0.35374,1.994872 -1.23911,3.9889 -1.82929,5.538933 -3.26631,7.642779 -7.21995,13.642304 -11.20095,19.371514 -0.53447,0.76601 -1.07069,1.52637 -1.60343,2.29809 -0.50097,0.72566 -3.01286,4.07481 -3.26061,5.45367 -0.0323,0.17939 0.12955,-0.26272 0.19433,-0.39407 -0.97154,-0.10871 -1.96428,0.12612 -2.9146,-0.32621 -0.32173,-0.15314 0.63721,-0.36923 0.94736,-0.61015 0.43661,-0.33918 0.8657,-0.72435 1.2905,-1.12832 1.7312,-1.64635 3.40778,-3.58797 5.1019,-5.40343 2.56238,-2.40896 4.96991,-5.75292 7.61265,-7.7572 1.10792,0.474235 2.28059,0.482838 3.32375,1.42271 0.22303,0.20095 -0.33539,0.75641 -0.51451,1.10837 -1.12388,2.20826 -2.3908,4.03713 -3.6447,5.86901 -0.58386,1.10454 -1.77663,1.74423 -2.13369,3.43651 -0.0226,0.10685 0.17372,-0.22725 0.11986,-0.23759 -1.01834,-0.19544 -2.04213,-0.2182 -3.06319,-0.3273 0.26095,-0.0875 0.52758,-0.11617 0.78285,-0.26287 0.72064,-0.41413 2.05815,-1.62831 2.66496,-2.20918 2.34488,-2.24456 4.56151,-4.94853 6.7925,-7.675819 5.94081,-7.222365 11.54162,-15.549667 16.77917,-24.982913 1.50809,-3.076252 3.09886,-6.132912 4.26277,-9.898229 0.29005,-0.938322 0.73363,-2.521308 0.68581,-3.816893 -0.0126,-0.340478 -0.15193,-0.597977 -0.22789,-0.896965 -1.94653,-0.520611 1.40667,-0.449586 2.01897,0.160075 0.38479,0.383155 -0.79897,0.621434 -1.17732,1.033869 -1.83256,1.997671 -3.43653,4.914347 -5.05562,7.600185 -4.13411,7.43945 -7.87227,15.881061 -11.41311,24.631729 -1.02843,3.221724 -3.84374,8.763471 -3.42231,13.298401 0.0466,0.5023 0.2038,0.92414 0.3057,1.3862 0.1883,0.27675 0.35189,0.65785 0.56489,0.83021 0.26558,0.21493 1.12175,0.29284 0.83843,0.30546 -0.83496,0.0372 -1.6982,0.25265 -2.50313,-0.23126 -0.39312,-0.23632 0.80525,-0.30542 1.19675,-0.5541 0.95004,-0.60352 1.70396,-1.43672 2.60308,-2.3259 2.08214,-2.53662 4.22973,-4.845 6.17409,-7.872097 0.75608,-1.491767 -0.102,0.145736 0.11492,0.202368 1.05824,0.276272 2.13592,-0.09682 3.19704,0.121072 0.31953,0.06553 -0.57013,0.643108 -0.84578,1.000545 -0.0801,0.281422 -1.51698,2.312882 -0.7798,2.197342 1.13277,0.2183 2.22143,0.41271 -2.74387,-0.0645 -0.18885,-0.0181 0.37782,-0.0525 0.56461,-0.11573 0.65203,-0.22079 1.22797,-0.75089 1.82606,-1.32806 1.28478,-1.601556 4.9274,-3.551688 4.74955,0.95787 0.0102,0.0997 -0.009,0.24168 0.0305,0.29885 0.0716,0.10533 0.63369,-0.0975 0.57225,-0.10478 -0.97521,-0.11632 -1.95674,0.0273 -2.92891,-0.17649 -0.23145,-0.0484 0.45803,-0.17795 0.68433,-0.29403 0.26607,-0.13647 0.52796,-0.30877 0.79193,-0.46315 1.55452,-1.173425 3.08187,-2.515248 4.54065,-4.172898 1.61971,-2.217653 5.71765,-3.543412 4.11998,2.265801 -0.0758,0.25115 -0.15731,0.494559 -0.22737,0.75345 -0.0612,0.226007 -0.24212,0.803577 -0.12536,0.737917 1.17768,-0.662247 -4.9049,0.36768 -2.69536,-0.671678 1.25788,-0.856892 2.40507,-2.325506 3.58867,-3.565285 1.31723,-0.933312 4.28412,-3.365195 4.69582,0.0601 0.0429,0.356616 0.0288,0.736707 0.0655,1.096565 0.16487,0.401217 0.0595,0.297679 0.32591,0.258647 -1.07075,-0.06452 -2.14324,-0.04647 -3.21227,-0.19359 -0.1544,-0.02123 0.30627,-0.102721 0.45619,-0.18573 0.31679,-0.175441 0.84823,-0.600337 1.14781,-0.829625 1.81381,-1.254062 4.5349,-3.715286 6.24656,-1.097513 1.02996,1.190523 4.12983,0.602796 -2.04475,0.393001 1.2116,-0.407368 2.42606,-0.731704 3.6491,-0.918917 2.11972,-0.208633 6.28042,-2.039174 3.92533,3.527837 -1.13041,2.064188 -2.28852,4.067018 -3.46766,5.999688 -0.0193,0.0355 -0.0771,0.14301 -0.058,0.10685 1.0388,-1.96732 0.14813,0.0473 -2.58518,-0.69409 -0.3441,-0.0933 0.68691,-0.21003 1.02877,-0.33642 1.22595,-0.45323 2.44762,-0.95963 3.67246,-1.42676 7.73464,-3.295887 15.5327,-5.796927 23.35188,-7.916481 3.93777,-0.763081 7.8816,-1.718815 11.84246,-1.503264 0.19363,0.01058 6.01597,-0.378448 7.66177,1.545347 0.29353,0.343097 0.42753,1.111748 0.64129,1.667627 -0.11717,0.767815 -0.13405,1.647024 -0.35153,2.30342 -0.71969,2.172341 -2.23686,3.878361 -3.25102,4.958351 -3.0649,3.26381 -6.32097,5.15181 -9.5963,7.10347 -8.38033,4.65463 -16.98888,6.59323 -25.59219,7.96929 -3.29503,0.27706 -5.28831,0.58064 -8.87756,-0.0139 -0.43649,-0.0723 -0.92612,-0.24405 -1.248,-0.88917 -1.17568,-2.35643 1.81988,-5.00714 3.40393,-6.60409 10.86668,-8.26451 22.37845,-11.323029 33.73792,-14.576697 7.7592,-1.867553 15.53935,-3.734392 23.34903,-4.228798 3.60965,-0.228509 6.5122,0.07568 10.24423,0.275285 -0.20878,0.01314 2.29598,0.111782 2.27934,1.878024 -0.0202,2.143769 -1.87009,3.507667 -2.3179,3.882584 -2.14038,1.79195 -4.80074,3.057902 -6.97276,4.248362 -13.45825,6.33205 -27.16301,9.80474 -40.84769,12.85457 -6.09134,1.28357 -12.18648,2.49735 -18.28585,3.58818 -1.0317,0.18452 -2.06194,0.44735 -3.09674,0.50805 -5.28623,0.31017 -5.82861,2.30566 -3.96436,-1.76057 0.91526,-0.41328 1.82417,-0.8999 2.74579,-1.23986 3.29002,-1.2136 7.55992,-2.29669 10.7795,-3.04859 8.24598,-1.92579 16.50715,-3.2815 24.77878,-4.54915 15.77895,-2.53146 31.58836,-3.6943 47.40677,-3.90328 2.65825,0.0562 5.31649,0.1123 7.97472,0.16843 0,0 -3.57284,1.21698 -3.57284,1.21698 l 0,0 c -0.27019,-0.0511 -0.54038,-0.10239 -0.81057,-0.15354 -15.7995,0.20922 -31.59022,1.3506 -47.35069,3.87067 -12.83457,1.94293 -25.72746,3.7945 -38.41688,8.57302 -0.26537,-0.13885 -0.52351,-0.387 -0.79612,-0.41655 -0.77577,-0.0842 -3.08024,0.51471 -2.32994,0.078 0.99104,-0.57708 2.04657,-0.32317 3.069,-0.50814 6.08419,-1.10071 12.16439,-2.31702 18.24135,-3.59071 13.69871,-3.02887 27.41336,-6.50435 40.89465,-12.7266 2.94815,-1.574498 5.95609,-2.892476 8.73219,-5.658123 0.20872,-0.207937 0.58115,-0.257691 0.59455,-0.756031 0.0462,-1.715004 -3.19857,-0.163431 -2.28452,-1.37433 1.90138,-0.757835 1.59046,-0.535147 -3.11327,-0.259775 -7.79747,0.456491 -15.56497,2.338663 -23.31259,4.172726 -11.37229,3.233283 -22.87947,6.297423 -33.7898,14.333723 -0.81132,0.74906 -1.64023,1.41375 -2.43397,2.24712 -0.6199,0.65088 -1.62089,1.67973 -0.99686,2.46513 0.37288,0.46931 1.31462,-0.2196 1.25097,0.70689 -0.019,0.27766 -7.18403,0.70581 1.7694,0.0198 8.59733,-1.3511 17.20031,-3.24253 25.58208,-7.82048 3.28152,-1.91093 6.5183,-3.78762 9.61022,-6.91479 1.10444,-1.11703 2.37264,-2.47839 3.2549,-4.430719 0.17304,-0.382966 0.23941,-0.939126 0.35911,-1.408687 -0.21081,-0.412032 -0.37158,-0.994849 -0.63244,-1.236081 -0.51202,-0.473495 -1.24848,0.04543 -1.62285,-0.849549 -0.24315,-0.581295 1.41961,-0.421245 1.05987,-0.496359 -1.11163,-0.232105 -2.23418,-0.06883 -3.3502,0.01813 -2.48899,0.194021 -6.02709,0.938888 -8.46558,1.400348 -7.83103,2.096671 -15.64213,4.575706 -23.3879,7.866617 -1.21176,0.45391 -9.62019,4.67558 -9.14345,0.54699 1.17791,-1.88772 2.29571,-3.951232 3.46014,-5.877894 0.22456,-0.473341 0.47387,-0.898631 0.66975,-1.428811 0.12845,-0.34767 -0.14107,-0.319933 -0.12983,-0.320637 1.04754,-0.06517 2.09573,-0.07014 3.14368,-0.07896 0.18219,-0.0019 -0.36394,0.03822 -0.54592,0.05728 -1.22327,0.155367 -2.44324,0.40948 -3.64967,0.890375 -1.96336,0.0492 -3.40272,1.030094 -4.99755,-0.6278 -1.22614,-0.363622 -0.11478,-0.01784 3.07977,-0.101609 0.15071,-0.0038 -0.30273,-0.06074 -0.45211,-0.017 -0.63969,0.187253 -1.18739,1.00424 -1.81778,1.268372 -1.63086,1.259236 -4.83598,4.221014 -5.79811,0.154447 -0.0188,-0.22066 0.0279,-0.5285 -0.0549,-0.662589 -0.0252,-0.04075 -0.12536,-0.01047 -0.094,-0.01155 5.88226,-0.216875 3.74472,-0.544225 2.47221,0.231588 -1.20102,1.240601 -2.36093,2.679672 -3.60074,3.728928 -1.62272,0.903 -5.48842,2.34359 -4.02303,-2.279711 0.12621,-0.426762 0.29059,-0.806398 0.38693,-1.268538 0.0209,-0.100159 -0.0383,-0.320749 0.0122,-0.328852 5.69925,-0.916063 3.81725,-1.059063 2.56657,0.594628 -1.45867,1.724592 -2.99227,3.077313 -4.5472,4.337933 -2.02273,1.30659 -2.99565,1.1113 -5.59287,1.06956 -0.39978,-0.007 -0.61767,-0.62557 -0.63834,-1.4051 0.16771,-3.171099 -1.5297,-0.8426 3.43608,-0.87304 0.0893,-5.5e-4 -0.17803,0.0401 -0.26487,0.0849 -0.41372,0.21319 -0.42003,0.30484 -0.83583,0.78363 -1.99978,2.09525 -4.57314,3.27119 -6.71328,1.42135 -0.5891,-1.57348 0.25608,-2.71743 0.77517,-3.774298 0.0227,-0.0314 0.8227,-1.145898 0.85622,-1.153378 2.30201,-0.514005 4.53658,-1.309819 4.01029,0.717829 -0.0628,0.241838 -0.16935,0.415716 -0.25403,0.623579 -1.92868,3.126558 -4.08827,5.425228 -6.16881,8.026988 -3.37809,3.46362 -4.08349,3.68272 -8.37398,3.24908 -0.30054,-0.0304 -0.59432,-0.30673 -0.85329,-0.63967 -0.22886,-0.2942 -0.38432,-0.79898 -0.57648,-1.19845 -0.10349,-0.56972 -0.26196,-1.10576 -0.31048,-1.70914 -0.40048,-4.97942 2.23752,-10.288105 3.40654,-13.852202 3.53748,-8.81075 7.28973,-17.276417 11.42027,-24.785565 2.90323,-4.839102 7.34313,-13.739827 11.33704,-8.404771 0.0781,0.450056 0.2193,0.870232 0.23442,1.350165 0.14961,4.746396 -3.64076,11.331594 -4.92777,14.271469 -1.92503,3.496973 -2.84069,5.261308 -4.89509,8.558118 -3.79202,6.08531 -7.83436,11.366797 -11.88992,16.565486 -3.28461,4.03333 -6.63526,8.37577 -10.30287,10.51547 -1.32965,-0.0948 -2.66835,0.0655 -3.98895,-0.28422 -0.39888,-0.10566 0.004,-1.31446 0.0381,-1.40415 0.52482,-1.38672 1.26325,-2.26043 1.96747,-3.13535 0.98431,-1.42588 1.96932,-2.84158 2.90188,-4.4269 0.008,-0.0137 1.25311,-2.236744 1.25821,-2.237824 1.24407,-0.264136 2.49997,0.0033 3.74995,0.0044 -0.87213,0.508544 -1.65393,1.459404 -2.4688,2.293504 -1.71122,1.75159 -3.42104,3.50703 -5.11246,5.34881 -1.70245,1.81797 -3.38504,3.76008 -5.11499,5.45319 -0.0146,0.0142 -2.0174,1.8939 -2.26195,1.9313 -1.37562,0.2104 -2.75803,0.0209 -4.13704,0.0315 -0.0701,-0.29769 -0.21587,-0.55885 -0.21025,-0.89305 0.0101,-0.60153 0.86401,-2.07071 0.87935,-2.09775 1.24896,-2.20234 2.64678,-3.96637 3.96734,-5.94698 3.96568,-5.693 7.90956,-11.622895 11.19878,-19.149405 0.38617,-0.972485 0.79544,-1.903787 1.1585,-2.917452 0.25082,-0.700241 0.48493,-1.434826 0.67974,-2.214764 0.0793,-0.31737 -0.0283,-0.967498 0.1341,-1.043494 1.00826,-0.471766 2.05664,-0.350654 3.08667,-0.463553 0.35037,-0.03837 -0.70619,0.05593 -1.04665,0.239945 -0.54449,0.294271 -1.06154,0.790819 -1.59231,1.186223 -6.00554,5.863721 -11.71296,12.97063 -17.08385,21.26889 -4.30826,6.74255 -8.53124,13.73949 -12.56188,21.2561 -1.55191,2.83733 -0.70378,1.84938 -4.37676,1.06278 -0.14985,-0.032 0.25953,-0.33287 0.3849,-0.51421 0.31934,-0.46198 0.63639,-0.93179 0.94892,-1.41532 1.12241,-1.7365 2.20738,-3.53198 3.31088,-5.32932 5.20661,-8.58717 10.22104,-17.71716 14.8145,-27.847051 2.33421,-5.232841 6.26084,-13.608419 6.9747,-21.078675 0.0771,-0.807452 -0.003,-1.649382 -0.004,-2.474073 -1.20223,-3.513766 -0.4335,-0.271552 1.87514,-2.439387 0.50313,-0.472446 -1.10066,-0.07495 -1.64367,0.08613 -2.78694,0.82671 -5.34375,3.60324 -7.86082,6.140382 -2.73809,3.229469 -3.8487,4.340929 -6.44483,8.225335 -3.99484,5.977225 -7.58439,13.153887 -10.92564,20.764713 -2.62126,6.154946 -5.54053,12.280956 -7.24671,19.904136 -1.15619,0.0867 -2.3124,0.17046 -3.46853,0.26042 -0.16319,0.0128 0.33327,0.0731 0.48976,-0.0286 0.33475,-0.2173 0.6495,-0.56595 0.96034,-0.91261 1.84851,-2.06153 3.50556,-4.81946 5.16595,-7.5045 1.92606,-3.29731 2.93622,-4.86579 4.73309,-8.63481 3.17223,-6.653894 5.98696,-14.207144 8.10174,-22.628846 0.84593,-4.176184 2.11498,-9.093655 1.81562,-13.904878 -0.0559,-0.897538 -0.19552,-1.831864 -0.46551,-2.521582 -0.25539,-0.652438 -1.35157,-0.807242 -1.0241,-1.283819 0.56978,-0.829263 1.3697,-0.143935 2.05455,-0.215906 -0.62627,0.343179 -1.26678,0.581001 -1.8788,1.029533 -4.39212,3.218873 -8.1405,9.567912 -11.72462,15.739116 -2.64692,5.110709 -5.31602,10.242323 -7.6069,16.131865 0,0 -3.54637,-0.521081 -3.54637,-0.521081 z"
       id="path3241"
       style="fill:#9f9f9f;fill-opacity:1;stroke:#0906bb;stroke-width:0.65383875;stroke-opacity:0.77578472" />
    <path
       d="m 225.20338,68.523927 c 1.10805,-0.996653 2.25533,-1.768142 3.38935,-2.61005 0,0 3.54102,0.959995 3.54102,0.959995 l 0,0 c -1.13538,0.849974 -2.29047,1.580652 -3.39962,2.585092 0,0 -3.53075,-0.935037 -3.53075,-0.935037 z"
       id="path3243"
       style="fill:#9f9f9f;fill-opacity:1;stroke:#0906bb;stroke-width:0.65383875;stroke-opacity:0.77578472" />
    <rect
       width="301.08331"
       height="30.833332"
       x="0.50000507"
       y="0.17190965"
       id="rect5467"
       style="fill:#c5c5c5;fill-opacity:1;stroke:none" />
    <text
       x="9.4280901"
       y="158.34026"
       id="text3862"
       xml:space="preserve"
       style="font-size:40px;font-style:normal;font-weight:normal;line-height:125%;letter-spacing:0px;word-spacing:0px;fill:#000000;fill-opacity:1;stroke:none;font-family:Sans"><tspan
         x="9.4280901"
         y="158.34026"
         id="tspan3864" /></text>
    <text
       x="7.0710678"
       y="157.16174"
       id="text3866"
       xml:space="preserve"
       style="font-size:22px;font-style:normal;font-weight:normal;line-height:125%;letter-spacing:0px;word-spacing:0px;fill:#000000;fill-opacity:0;stroke:none;font-family:Sans"><tspan
         x="7.0710678"
         y="157.16174"
         id="tspan3868" /></text>
    <text
       x="29.46278"
       y="174.25017"
       id="text3874"
       xml:space="preserve"
       style="font-size:16px;font-style:normal;font-weight:normal;line-height:125%;letter-spacing:0px;word-spacing:0px;fill:#000000;fill-opacity:1;stroke:none;font-family:Sans"><tspan
         x="29.46278"
         y="174.25017"
         id="tspan3876"
         style="font-size:14px;font-style:normal;font-variant:normal;font-weight:normal;font-stretch:normal;font-family:Droid Sans;-inkscape-font-specification:Droid Sans">Kris Molinari</tspan><tspan
         x="29.46278"
         y="191.75017"
         id="tspan3878" /></text>
    <text
       x="29.462805"
       y="187.21378"
       id="text3880"
       xml:space="preserve"
       style="font-size:16px;font-style:normal;font-weight:normal;line-height:125%;letter-spacing:0px;word-spacing:0px;fill:#000000;fill-opacity:1;stroke:none;font-family:Sans"><tspan
         x="29.462805"
         y="187.21378"
         id="tspan3882"
         style="font-size:9px;font-style:italic;font-variant:normal;font-weight:normal;font-stretch:normal;font-family:Droid Sans;-inkscape-font-specification:Droid Sans Italic">Freelance Full-Stack Developer</tspan></text>
    <text
       x="193.27585"
       y="173.07167"
       id="text3884"
       xml:space="preserve"
       style="font-size:16px;font-style:normal;font-weight:normal;line-height:125%;letter-spacing:0px;word-spacing:0px;fill:#5c54f2;fill-opacity:1;stroke:none;font-family:Sans"><tspan
         x="193.27585"
         y="173.07167"
         id="tspan3886"
         style="font-size:9px;font-style:italic;font-variant:normal;font-weight:normal;font-stretch:normal;fill:#5c54f2;fill-opacity:1;font-family:Droid Sans;-inkscape-font-specification:Droid Sans Italic">kamolinari42@gmail.com</tspan></text>
    <text
       x="236.8808"
       y="186.62453"
       id="text3888"
       xml:space="preserve"
       style="font-size:16px;font-style:normal;font-weight:normal;line-height:125%;letter-spacing:0px;word-spacing:0px;fill:#000000;fill-opacity:1;stroke:none;font-family:Sans"><tspan
         x="236.8808"
         y="186.62453"
         id="tspan3890"
         style="font-size:9px;font-style:normal;font-variant:normal;font-weight:normal;font-stretch:normal;font-family:Droid Sans;-inkscape-font-specification:Droid Sans">(865)-356-7227</tspan></text>
    <text
       x="227.45268"
       y="161.28653"
       id="text3892"
       xml:space="preserve"
       style="font-size:16px;font-style:normal;font-weight:normal;line-height:125%;letter-spacing:0px;word-spacing:0px;fill:#000000;fill-opacity:1;stroke:none;font-family:Sans"><tspan
         x="227.45268"
         y="161.28653"
         id="tspan3894"
         style="font-size:13px;font-style:normal;font-variant:normal;font-weight:normal;font-stretch:normal;font-family:Droid Sans;-inkscape-font-specification:Droid Sans">Contact Me:</tspan></text>
    <path
       d="m 193.81705,174.54479 102.59349,0"
       id="path3898"
       style="fill:#5c54f2;fill-opacity:1;stroke:#5c54f2;stroke-width:0.9353658px;stroke-linecap:butt;stroke-linejoin:miter;stroke-opacity:1" />
  </g>
  <g
     id="layer2" />
</svg>
